<svg xmlns="http://www.w3.org/2000/svg" version="1.1" width="600px" height="600px" viewBox="0 0 200 200" style="overflow:hidden!important;"><g id="svga-group-wrapper"><g id="svga-group-backs-single"></g><g id="svga-group-humanwrap-move" transform="matrix(1,0,0,1,0,-2)"><g id="svga-group-humanwrap" transform="matrix(0.8499995000000001,0,0,0.8499995000000001,15.045712650682432,17.38499180292891)"><g id="svga-group-hair-back-move" transform="matrix(1,0,0,1,0,0)"><g id="svga-group-hair-back"></g></g><g id="svga-group-humanbody-back"><path id="SvgjsPath3770" d="M77.6 118.3c0 19.3 3.4 44.1-10 51.9-13.4 7.9-31.9 11.3-37.8 22s-4.4 25.3-4.4 25.3h149.3s.7-18.9-5.1-26.4c-8.1-10.4-27.8-15.5-37.7-20.9s-13.4-25.1-13.4-52.4l-40.9.5z" fill="#ffffff" stroke-width="none" opacity="1"></path></g><g id="svga-group-chinshadow-single"></g><g id="svga-group-humanbody-front"><path id="SvgjsPath3771" d="M175.8 218.7H24.4l-.1-1c-.1-.6-1.5-15.1 4.5-26 4.1-7.4 13.5-11.3 23.5-15.5 5-2.1 10.2-4.3 14.8-6.9 10.6-6.2 10.1-23.9 9.6-41-.1-3.5-.2-6.8-.2-10v-1.1l43.2-.4v1.1c0 29.9 4.2 46.7 12.8 51.4 2.9 1.6 6.7 3.2 10.8 4.9 10 4.1 21.3 8.8 27.2 16.3 6.1 7.7 5.4 26.4 5.4 27.1l-.1 1.1zm-149.3-2.2h147.1c0-4.1-.2-18.5-4.9-24.6-5.5-7-16.6-11.6-26.3-15.6-4.1-1.7-8-3.3-11-5-5.1-2.8-8.7-8.9-10.9-18.7-2-8.4-2.9-19.4-3-33.5l-38.6.4c0 2.8.1 5.7.2 8.8.5 17.8 1 36.1-10.7 43-4.7 2.7-9.9 4.9-15 7.1-9.6 4-18.7 7.8-22.4 14.5-5 8.6-4.7 20.1-4.5 23.6z" fill="#000000" stroke-width="none" opacity="1"></path><path id="SvgjsPath3772" d="M93.9 153.8c-.5 1.8-.4 3.4.5 5.2.8 1.6 2.1 2.7 3.9 2.9.4 0 .7-.5.5-.8-1.6-2.2-3.5-4.2-3.7-7.1 0-.7-1-.9-1.2-.2z" fill="#000000" stroke-width="none" opacity="1"></path><path id="SvgjsPath3773" d="M112.5 187.5c8.8.5 18.1-.7 26.6-2.9.7-.2.6-1.4-.2-1.3-8.8 1.1-17.7 2-26.5 3.3-.5.1-.3.9.1.9z" fill="#000000" stroke-width="none" opacity="1"></path><path id="SvgjsPath3774" d="M63.1 182.5c3.8.9 7.6 1.9 11.5 2.8 3.6.8 7.4 2 11.1 2.1.7 0 .8-.9.2-1.2-3.5-1.4-7.5-1.7-11.2-2.5-3.8-.7-7.5-1.3-11.3-2-.5 0-.7.7-.3.8z" fill="#000000" stroke-width="none" opacity="1"></path></g><g id="svga-group-clothes-single"><path id="SvgjsPath8537" d="M77.6 140.5s-8.6 2.8-13.1 5.9-5.6 10-5.6 10-2.3-3.3-4.5 1.9-1.8 5.6-4 7.9c-2.3 2.3-1 6.8-.2 7.9 0 0-4 2.8-8.4 4s-10.3 4.2-12.1 6.6-9.6 12.8-5.6 34h153.6s0-21-3-27.5-7.7-7.5-7.7-7.5-9.8-7-11.7-8.2-11-4.2-11-4.2-.5-4.2-1.2-7.2-4.6-8.1-6.6-8.4c-2.1-.4-3-2.8-5.6-7-2.6-4.2-5.8-6.5-7.3-7-1.6-.5-3.3-.2-3.3-.2s1.2 8.9 1.2 13.6-.9 7.7-4.6 12.2c-3.7 4.6-6.1 5.8-11.4 9.3s-6.3 5.4-6.3 5.4-3.2-5.1-8.8-8.6S83 166 79 162.5s-1.1-6.1-1.4-11.2c-.3-5.1 0-10.8 0-10.8z" fill="#ffffff" stroke-width="none" opacity="1"></path><path id="SvgjsPath8538" d="M175.6 190.8c-2.8-6.1-7.1-7.7-8.2-8-1.3-.9-9.8-7-11.6-8.1-1.8-1.1-8.5-3.4-10.6-4.1-.2-1.3-.6-4.3-1.2-6.6-.7-3-4.7-8.7-7.5-9.1-1.1-.2-1.8-1.3-3.3-3.9-.5-.8-1-1.6-1.6-2.6-2.6-4.2-5.9-6.8-7.9-7.4-1.8-.6-3.8-.2-3.8-.2-.5.1-.9.6-.8 1.1 0 .1 1.2 8.9 1.2 13.5 0 4.2-.7 7.1-4.3 11.6-3 3.8-5.1 5.1-9 7.6-.7.4-1.4.9-2.2 1.4-3.1 2.1-4.8 3.6-5.7 4.6-1.3-1.8-4.1-5.1-8.3-7.7-3.3-2.1-5.2-4.4-7.1-6.6-1.2-1.4-2.5-2.9-4.1-4.4-2.2-1.9-1.9-3.4-1.5-5.7.3-1.4.6-2.9.4-4.8-.3-4.9 0-10.7 0-10.7 0-.3-.1-.6-.4-.9-.3-.2-.6-.3-.9-.2-.4.1-8.8 2.9-13.4 6.1-3.5 2.4-5 6.7-5.7 9-.4-.2-.8-.3-1.3-.2-1.4.1-2.5 1.3-3.5 3.6-.7 1.7-1.2 2.9-1.5 3.8-.7 1.9-.9 2.4-2.3 3.8-2.2 2.2-1.7 6.2-.8 8.3-1.3.8-4.3 2.5-7.3 3.4-4.6 1.3-10.7 4.3-12.6 7l-.1.2c-6.4 8.9-8.3 20.6-5.6 34.6.1.5.5.8 1 .8h153.6c.6 0 1-.4 1-1 0-1.2-.1-21.6-3.1-28.2zm-33-23.6c.3 1.9.6 3.7.6 4.1 0 .2-.1.8-.6 1.6.3-1.8.2-3.8 0-5.7zm-20.7-19.4c.5.2 1.2.5 1.9.9-.2.1-.3.1-.5.1l-1.2.3c-.2-.5-.2-.9-.2-1.3zm-.1 12.5h1.5c-.6.4-1.3 1-2 1.6.2-.5.4-1 .5-1.6zm4.2-3.1c-1.2.1-2.6.4-3.8.6.1-.5.1-1 .1-1.5 1.3-.1 2.7-.3 3.9-.5 0 .5-.1 1-.2 1.4zm.1-5c.1.5.1.9.1 1.3-1.3 0-2.7.4-3.9.8 0-.5 0-1-.1-1.5 1.3-.2 2.7-.3 3.9-.6zm-3.8 3.6v-1.1c.7-.2 1.4-.3 2.2-.4.6-.1 1.2-.1 1.8-.2v1.1c-1.3 0-2.7.3-4 .6zm-.1-3.5c0-.4-.1-.8-.1-1.1.6-.1 1.1-.1 1.7-.2.6-.1 1.2-.2 1.7-.3.2.3.3.6.4 1-1.2 0-2.5.3-3.7.6zm1.9-2c-.6.1-1.3.2-1.9.4 0-.3-.1-.7-.1-1 .4-.1.9-.2 1.3-.3.3-.1.7-.1 1-.3l.9.9c-.5.1-.9.2-1.2.3zm-1.9 8c1.1-.1 2.4-.2 3.5-.4-.3.7-.9 1.3-1.6 1.8-.7 0-1.5.1-2.2.1l.3-1.5zM76 159.6c-1.2-1.1-2.3-2.2-2.7-3.1-.1-.1-.1-.2-.1-.4.9.7 1.8 1.5 2.8 2.1-.1.5-.1 1 0 1.4zm-.5-10.9c.3.4.7.7 1.1 1 0 .4 0 .9.1 1.3-.3-.2-.5-.4-.8-.6-.4-.3-.7-.6-1.1-.9.1-.2.4-.5.7-.8zm.3-.3c.2-.2.4-.3.6-.4v1c-.1-.2-.3-.4-.6-.6zm-1.4 1.5c.4.4.8.7 1.2 1 .3.3.6.6 1 .8v1c-.8-.7-1.8-1.4-2.7-2 .2-.2.3-.5.5-.8zm-.7 1.4c.9.8 1.8 1.7 2.8 2.3 0 .3-.1.6-.1.9-.4-.3-.9-.6-1.4-.9-.6-.4-1.2-.8-1.7-1.2.1-.4.3-.8.4-1.1zm-.5 1.5c.5.4 1.1.8 1.6 1.2.5.4 1 .8 1.6 1.1 0 .2-.1.4-.1.5 0 .1-.1.3-.1.4-.5-.3-1-.6-1.4-.9l-1.8-1.2c0-.3.1-.7.2-1.1zm2.7 4.8c-.9-.8-1.9-1.5-2.9-2.1v-1c.4.4.9.7 1.4 1.1.5.4 1.1.8 1.7 1.2-.1.2-.1.5-.2.8zm-22.1 4.8c.3-.9.8-2 1.5-3.7.9-2.1 1.6-2.3 1.8-2.4.3 0 .6.2.8.4.1 2.2 1.5 13.1 16.7 21.5.2.1.3.1.5.1.3 0 .7-.2.8-.5.1.2.2.5.3.7.1.1.3.1.3-.1-.2-2-.6-3.7-.3-5.7 0-.2-.3-.4-.4-.1-.2 1.2-.4 2.5-.2 3.8l-.1-.1c-.1-.1-.2-.1-.3-.2-.3-1.7-.5-3.3-.4-5 0-.3-.4-.3-.4 0-.2 1.5-.2 3.1.1 4.6-.4-.3-.9-.5-1.3-.8-.2-.5-.3-1.1-.4-1.6-.2-1.1-.1-2.1.1-3.1 0-.2-.3-.3-.3-.1-.3 1.3-.4 3 0 4.4-.4-.2-.7-.5-1-.7-.1-2.3-.2-4.5.1-6.8 0-.3-.4-.2-.4 0-.3 2.1-.4 4.2-.2 6.4-.6-.4-1.2-.9-1.7-1.4-.1-2.1-.1-4.2.3-6.4 0-.2-.2-.3-.3-.1-.5 2-.7 4-.6 6-.4-.4-.8-.8-1.2-1.1 0-1-.1-2.1 0-3.1.1-1.4.4-2.8.8-4.1.1-.2-.2-.3-.3-.1-.7 2-1.3 4.5-1 6.7-.4-.4-.7-.8-1.1-1.1-.2-1 .2-3.2.2-3.5.2-1.4.5-2.7 1-4 .1-.2-.2-.2-.3-.1-.8 2.3-1.3 4.7-1.4 7.1-.3-.3-.5-.6-.8-1 .1-.1.1-.2.1-.2.1-.1-.1-.3-.2-.2.2-2.9.8-5.8 1.8-8.5.1-.2-.2-.3-.3-.1-1 2.7-1.7 5.5-1.9 8.3-.3-.5-.6-.9-.9-1.4.7-2.8 1.1-5.7 2.1-8.5.1-.3-.3-.4-.4-.1-.9 2.5-1.8 5.3-2 8-.4-.6-.7-1.2-1-1.8.7-3 1.1-5.8 2.5-8.6.1-.2-.2-.4-.3-.2-1.3 2.4-2.4 5.3-2.6 8.1-.3-.8-.6-1.6-.8-2.2 1.2-2.8 1.9-5.8 3.1-8.6.1-.2-.2-.4-.3-.2-1.2 2.5-2.6 5.3-3.1 8-.3-1.4-.4-2.3-.4-2.6 1.2-2.5 2.1-5.1 3.3-7.6.5-.6 1.1-1.2 1.8-1.7 3.3-2.3 8.9-4.4 11.5-5.3 0 1-.1 2.4-.1 3.9-1.9.7-3.5 2.3-4.5 4.5-1.1 2.5-1.3 5.3-.5 7.1 1.1 2.4 5.2 5.4 8.7 7.8.3.2.5.3.6.4l1.5 1.8c2 2.3 4 4.8 7.6 7 5.3 3.3 8.4 8.2 8.4 8.2.2.3.5.5.9.5.3 0 .7-.2.8-.5 0 0 1.1-1.8 6-5.1.8-.5 1.5-1 2.2-1.4 3.2-2.1 5.4-3.5 7.8-6.2.2 0 .4-.1.5-.3.1-.1 5.5-6.1 8.3-7.9 3.5-2.4 3.9-5.5 3.3-9.8-.6-4.3-5-5.9-6.5-6.3-.2-1.3-.3-2.4-.4-3.2.5 0 1.2 0 1.9.2 1.4.5 4.3 2.6 6.8 6.6.6.9 1.1 1.8 1.5 2.6 0 0 0 .1.1.1l-.7-.7c-.1-.1-.3.1-.2.2.7.8 1.3 1.7 2 2.5v.1s.3 1.1.3 2.9c-.5-.8-1.1-1.6-1.4-2.5-.1-.2-.4-.1-.4.1.4 1.2.9 2.4 1.8 3.3 0 .3 0 .7-.1 1.1-.5-.7-1.1-1.3-1.5-1.9-.1-.2-.5 0-.3.2.5.7.9 1.4 1.4 2.1.1.2.2.3.3.5-.1.6-.2 1.2-.3 1.9-.5-.6-1-1.2-1.4-1.8-.1-.2-.4.1-.3.2.5.7 1 1.6 1.6 2.3-.1.5-.3 1.1-.6 1.7-.2-.4-.4-.9-.5-1.3-.1-.2-.5-.1-.4.1.2.6.4 1.4.6 2.1-.2.5-.5 1.1-.9 1.6-.1-.3-.1-.6-.1-.9 0-.3-.4-.3-.4 0 0 .5.1 1.1.1 1.6-.4.5-.8 1.1-1.2 1.6-.1-.6-.2-1.3-.3-1.9 0-.2-.4-.2-.4.1.1.8.1 1.6.2 2.3-.4.4-.8.9-1.2 1.3 0-.8-.1-1.5-.2-2.3 0-.3-.4-.3-.4 0 0 .9-.1 1.9 0 2.9-.3.3-.6.6-.9.8 0-.2 0-.5-.1-.7 0-.8-.1-1.5-.1-2.2 0-.3-.4-.3-.4 0 0 .8 0 1.5.1 2.2v1.2c-.4.4-.9.7-1.3 1.1 0-.2-.1-.4-.1-.7 0-.6 0-1.1.1-1.7 0-.3-.3-.4-.4-.1-.2.9-.4 2-.1 2.9-.3.3-.7.5-1 .8 0-.4-.1-.8-.1-1.2 0-.3-.5-.3-.5 0v1.6c-.4.3-.7.5-1.1.8 0-.4-.1-.9-.1-1.3 0-.3-.5-.3-.5 0 0 .6 0 1.1.1 1.6-.4.3-.8.5-1.1.7v-1.8c0-.3-.4-.3-.4 0 0 .6-.1 1.1-.1 1.7v.5c-.4.2-.7.4-1.1.6v-1.4c0-.3-.4-.2-.4 0-.1.5-.1 1.1-.1 1.6-.2.1-.5.2-.7.3-.1 0-.1 0-.1.1 0-.4.1-.7.1-1.1 0-.2-.4-.2-.4 0-.1.4-.1.8-.2 1.3-.3.1-.7.3-1 .4v-1.3c0-.2-.4-.2-.4 0 0 .5-.1 1-.2 1.5-.5.2-1 .4-1.4.5v-1c0-.3-.4-.3-.4 0 0 .4-.1.8-.1 1.2-.3.1-.6.2-.8.3 0-.4.1-.7.1-1.1 0-.2-.4-.3-.4-.1-.1.4-.1.9-.2 1.3-.2.1-.4.1-.4.1-.5.2-.8.7-.7 1.2.1.4.5.7 1 .7h.3c.1 0 1.5-.5 4.4-1.6v.1c0 .2.3.1.3 0s0-.1.1-.2c.4-.1.7-.3 1.1-.4 3.7-1.5 13.6-8.3 16.3-15 1.5-3.6 1.7-6.9 1.6-9 .4.2.8.4 1.2.4 1.4.2 5 4.6 5.8 7.4-.1 0-.2.1-.2.2.3 3.2.1 6.4.2 9.5-.2.2-.4.5-.6.7v-8.7c0-.2-.4-.2-.4 0-.1 3.1-.2 6.2-.2 9.3l-.5.5c0-2.4-.3-4.8-.4-7.2 0-.2-.4-.3-.4 0 .1 2.6-.1 5.2.2 7.8-.2.1-.4.3-.5.4.1-2 0-4.1-.1-6.1 0-.2-.4-.2-.4 0-.1 2.2-.4 4.5-.3 6.7-.2.2-.5.3-.7.5.2-2 .1-4 0-6 0-.2-.4-.2-.4 0 0 2.1-.2 4.3-.3 6.4-.4.2-.9.5-1.4.7.2-1.9 0-3.9 0-5.8 0-.3-.4-.3-.4 0-.1 2-.3 4.1-.2 6.1-.4.2-.8.4-1.3.6.2-1.3.2-2.7.3-4 0-.3-.4-.3-.4 0-.2 1.4-.5 2.9-.6 4.3-.4.2-.9.4-1.3.5.2-1.4.2-2.9.6-4.3.1-.3-.4-.4-.4-.1-.3 1.4-.8 3.1-.9 4.7-.5.2-.9.3-1.4.5.1-1.2 0-2.6.1-3.8 0-.3-.4-.3-.4 0-.1 1.2-.4 2.7-.3 4-.6.2-1.3.4-1.9.7 0-.4 0-.9.1-1.3.1-.9.3-1.7.6-2.5.1-.2-.3-.3-.4-.1-.5 1.2-1 2.7-1 4.1l-.9.3v-.1c.1-.7.1-1.4 0-2.1 0-.3-.5-.3-.5 0 0 .7 0 1.3-.1 2 0 .1-.1.3-.1.5-.4.1-.8.3-1.2.4.1-.6.1-1.2.1-1.8 0-.3-.4-.3-.5 0-.1.6-.2 1.3-.3 2-.5.1-1 .3-1.5.5v-1c0-.3-.5-.3-.4 0v1.2c-.5.2-1 .3-1.5.5.1-.5.3-1.1.4-1.6.1-.3-.3-.4-.4-.1-.2.6-.4 1.3-.6 1.9-.4.1-.8.2-1.2.4.1-.6.2-1.1.3-1.6.1-.3-.4-.4-.4-.1-.2.6-.4 1.3-.5 1.9-.2.1-.4.1-.6.2.1-.4.2-.9.4-1.3.1-.2-.3-.4-.4-.1-.2.5-.4 1-.6 1.6-.2.1-.3.1-.5.1 0-.2.1-.4.1-.6.1-.2-.3-.3-.3-.1-.1.3-.2.5-.3.8-.5.1-.9.3-1.3.4 0-.1-.2-.2-.3 0 0 .1-.1.1-.1.1-.8.2-1.6.4-2.2.6-1.6.4-2.7.8-3.1.9-.3.1-1.2.2-2.4.2-.2-1.3-.6-2.7-1.5-4.8-.2-.5-.8-.7-1.3-.5s-.7.8-.5 1.3c.8 1.7 1.1 2.9 1.3 3.9H101c-.3-.4-.6-.7-1-1-.2-.2-.5.1-.3.3l.7.7h-1.2c-.2-.2-.4-.5-.6-.7-.4-.6-.7-1.2-.9-1.9-.1-.3-.5-.2-.4.1.2.8.6 1.7 1.1 2.5-.4 0-.9 0-1.3-.1-.1-1.8-.1-3.5-.1-4.4 0-.6-.4-1-1-1s-1 .4-1 1c0 .4 0 2.2.1 4.3h-.2c-.3-.4-.7-.8-.9-1.3-.4-.7-.6-1.5-.7-2.3 0-.2-.4-.3-.4 0 .1 1.1.4 2.6 1.2 3.5-.5 0-.9-.1-1.4-.1-.2-.4-.5-.9-.7-1.3-.3-.7-.5-1.5-.5-2.3 0-.2-.4-.3-.4 0 0 1.1.3 2.6 1 3.6-.3 0-.5 0-.8-.1-.2-.6-.7-1.1-.9-1.7-.3-.7-.4-1.4-.4-2.1 0-.3-.4-.3-.4 0-.1 1.1.2 2.9 1.1 3.8-.4 0-.8-.1-1.3-.1-.3-.6-.8-1.2-1.1-1.8-.3-.8-.5-1.6-.5-2.4 0-.3-.4-.3-.4 0 0 1.3.3 3.1 1.3 4.1-.6-.1-1.2-.1-1.8-.2-.3-.4-.5-.9-.7-1.4-.3-.8-.4-1.6-.5-2.4 0-.3-.5-.3-.4 0 0 1.2.3 2.6.9 3.7-.4-.1-.9-.1-1.3-.2-.2-.4-.5-.9-.7-1.4-.3-.8-.5-1.5-.5-2.3 0-.3-.4-.3-.4 0 .1 1.2.3 2.5 1 3.6-.5-.1-.9-.1-1.3-.2-.4-.6-.8-1.1-1-1.7-.4-.8-.6-1.7-.8-2.6 0-.2-.4-.1-.3.1.1 1.3.5 3 1.3 4.1-.7-.1-1.3-.3-1.8-.4-1-1.4-1.8-2.7-2.2-4.5-.1-.2-.3-.1-.3.1.2 1.4.8 2.9 1.7 4.1-.2-.1-.5-.2-.6-.3-.3-.2-.8-.4-1.3-.6-.7-1.5-1.4-3-1.8-4.7-.1-.3-.5-.2-.4.1.2 1.4.6 2.9 1.3 4.1-.3-.1-.7-.3-1-.4-.8-1.6-1.6-3-1.9-4.9 0-.2-.4-.2-.4.1.2 1.5.6 3.2 1.4 4.5-.3-.1-.6-.2-.9-.4-.4-.8-.8-1.5-1.1-2.2-.4-1.1-.7-2.2-.8-3.3 0-.3-.5-.2-.5.1.2 1.6.6 3.6 1.5 5.1l-1.5-.6c-.3-.7-.7-1.3-1-2-.4-.9-.7-1.9-.9-2.9-.1-.3-.5-.2-.4.1.3 1.4.7 3.2 1.6 4.5-.2-.1-.4-.1-.5-.2-.5-.2-1-.4-1.6-.6-.9-1.5-1.5-3-1.8-4.8 0-.2-.4-.2-.4.1 0 1.5.5 3.1 1.3 4.4-.7-.3-1.4-.6-2.1-.8-.8-1.7-1.5-3.4-1.7-5.3 0-.3-.4-.3-.4 0 .1 1.7.5 3.5 1.3 5-.4-.2-.8-.3-1.2-.5-.5-.8-1-1.5-1.4-2.4-.5-1.2-.8-2.5-.9-3.8 0-.3-.4-.3-.4 0 .1 1.9.6 4.1 1.7 5.8-.6-.3-1.3-.5-1.9-.8-1.2-2.1-2.1-4-2.2-6.6 0-.3-.4-.3-.4 0 0 2.1.5 4.4 1.6 6.1-.5-.2-1.1-.5-1.6-.7-1.3-2.3-2.1-4.5-2-7.2 0-.3-.4-.3-.4 0-.2 2.3.3 4.8 1.6 6.8-.3-.2-.7-.3-1-.5-1.3-2.7-2.2-5.2-2.2-8.2 0-.3-.4-.3-.4 0-.1 2.7.5 5.6 1.9 7.9-.7-.4-1.3-.7-1.9-1-1.6-2.4-2.2-4.8-2-7.9v-.1c.8-1.9 1.1-2.7 1.9-4.7zm-3.3 5.3c-.3 2.1.2 4.4 1.3 6.3-.3-.2-.6-.4-.8-.6-.6-.7-1.5-3.7-.5-5.7zM33.2 183c.3.9.8 2.5 1.4 4.6-.7-.3-1.5-.5-2.1-.9-.7-.4-1.3-1-1.8-1.6.5-.7 1.4-1.4 2.5-2.1zm-2.8 2.5c1.1 1.3 2.7 2.5 4.4 2.6.2.8.5 1.7.7 2.7l-.1-.1c-2.4-.9-4.4-1.8-6.2-3.4l1.2-1.8zm-6.2 27.4c3.5 2.2 7.7 4.1 11.8 4.8H24.9c-.3-1.6-.5-3.2-.7-4.8zm12.9 4.8c0-.1 0-.2-.1-.3-4.5-1.5-8.6-2.9-12.8-5.1-.1-.9-.1-1.9-.2-2.8 4.6 2.7 10 5.1 15.2 6.1.2 0 .3-.2.1-.3-5.1-2.2-10.2-4.2-15.3-6.5v-2.9c3.5 2.5 7.6 4.5 11.9 5.4.3.1.4-.4.1-.5-4.2-1.6-8.2-3.2-12-5.5 0-1.2.1-2.3.3-3.4 2.9 1.7 5.9 3.1 9.1 4 .3.1.4-.4.1-.5-3.1-1.3-6.2-2.6-9.2-4.1.1-.9.3-1.8.4-2.6 3 2.4 6.6 4.4 10.4 5 .2 0 .3-.2.1-.3-3.7-1.5-7.1-3.1-10.4-5.2l.6-2.4c2.8 1.9 5.8 3.8 9 4.7.2.1.3-.2.1-.3-3-1.7-6-3.1-8.9-4.9.3-.9.5-1.7.9-2.5 2.4 1.8 5.3 3.1 8.3 3.6.3 0 .4-.3.1-.4-2.9-1-5.6-2.2-8.2-3.8.2-.6.5-1.2.8-1.8 2.2 2 4.9 3.6 7.8 3.9.2 0 .2-.2 0-.3-2.8-1.1-5.3-2.2-7.6-4.1.4-.7.7-1.4 1.1-2.1 1.7 1.8 4.1 3.1 6.5 3.3.1 0 .1 0 .2-.1 1.4 5.9 3.1 14.8 4.1 26.7h-2.5zm4.5 0C39.9 196.6 36 184.9 35 182c2.2-1.2 4.9-2.3 7-2.9 3.5-1 6.7-2.9 8.1-3.7 3.3 2.5 11.8 5.9 18.6 8.6 3.8 1.5 7.2 2.8 8.6 3.6 2.4 1.3 10.3 2.2 17.6 2.6.2 1.5.4 2.9.7 3.8.7 1.9.5 3.3-.2 7.5l-.3 1.8c-.3 1.9-.7 3.4-1.1 4.8-.7 2.6-1.3 4.6-.2 6.8.2.4.5.6.9.6.1 0 .3 0 .4-.1.5-.2.7-.8.5-1.3-.8-1.6-.3-3 .3-5.4.4-1.3.8-3 1.2-5l.3-1.8c.7-4.3 1-6.1.1-8.5-.2-.6-.4-1.8-.6-3 2.3.1 4.5.2 6.4.2 0 .5-.1 1.1-.1 1.7-.1.7-.1 1.5-.2 2.4-.2 4.4.8 10 .9 10.9l-.2 9c0 .6.4 1 1 1 .5 0 1-.4 1-1l.2-9.1v-.2c0-.1-1.1-6-.9-10.5 0-.9.1-1.7.2-2.4s.1-1.3.1-1.9c1.5 0 2.5-.1 2.9-.3.4-.1 1.5-.4 3-.9 2.4-.7 5.7-1.6 9.2-2.7.1.1.3.1.4 0l.1-.1c6.8-2.1 14.4-4.6 17.7-6.8 4.4-2.9 5.9-5.5 6.4-7 3 1 8.4 2.9 9.8 3.8 1.6 1 9.1 6.4 11.1 7.8-.6 3.2-3.3 18.3-2.9 33.6l-121.4-.2zm123.3-1.3c.9.5 1.8.9 2.8 1.3H165c0-.4 0-.9-.1-1.3zm4.4 1.3c-1.4-.7-2.9-1.4-4.4-1.9v-3.1c2.8 2 6 3.5 9.3 4 .3 0 .4-.4.1-.4-3.4-1.1-6.5-2.3-9.4-4.2 0-1.1.1-2.1.1-3.2 2.6 1.2 5.3 2.4 8 3.2.2.1.4-.3.2-.4-2.6-1.3-5.4-2.4-8.1-3.4.1-1.1.1-2.1.2-3.1 2.3 1.5 4.8 2.8 7.4 3.6.2.1.4-.3.2-.4-2.6-1.2-5.1-2.3-7.6-3.8.1-.9.1-1.8.2-2.7 1.8 1.7 4.7 2.7 7.1 2.8.2 0 .3-.3.1-.4-1.4-.4-2.8-.8-4.2-1.4-1-.5-1.9-1.1-2.9-1.7.1-.9.2-1.7.2-2.6 2.1 1.2 4.2 2.5 6.4 3.3.2.1.3-.2.1-.3-2-1.4-4.3-2.4-6.5-3.4.1-1.1.2-2.1.4-3 1.6 1.1 3.2 2.2 4.9 3.1.2.1.3-.1.1-.2-1.6-1.2-3.3-2.3-5-3.2.3-2.3.6-4.3.8-6 1 .9 2 1.8 3.1 2.5.2.1.4-.1.2-.3-.9-1-2.1-1.9-3.2-2.7.2-1.4.4-2.5.6-3.2 1.4.7 4.1 2.4 6 6.6 2.5 5.4 2.8 21.9 2.9 26.1l-7.3-.2zm-2.3-25.9c-.3-.1-.4.2-.2.4 1.2.9 2.5 1.9 3.8 2.4.2.1.5-.2.3-.4-1.2-1-2.6-1.8-3.9-2.4zm-87.4-12.2c-.1-.8-.4-1.6-.6-2.5-.2-1-.2-1.9-.1-2.9 0-.3-.4-.3-.4 0-.2 1.7-.1 4 .8 5.5.1.2.3.1.3-.1zm1.9.9c.1-1.6-.3-3.4-.5-5 0-.3-.4-.3-.4 0 .1 1.7.1 3.5.5 5.1.1.2.4.1.4-.1zm1.2.1c.1-1.3-.3-2.7-.5-4.1 0-.2-.3-.1-.3.1.1 1.3.1 2.8.5 4.1 0 .2.3.1.3-.1zm2 1c-.2-1.5-.8-2.8-1-4.3 0-.3-.4-.3-.4 0 .1 1.4.3 3.2 1.1 4.4.1.2.3.1.3-.1zm2.1.2c.1.1.2-.1.1-.2-.3-.3-.6-.6-.8-1-.2-.4-.4-.8-.4-1.2 0-.3-.5-.2-.4.1 0 .9.5 2 1.5 2.3zm2.4.7c.1.1.3 0 .3-.2-.4-.9-1.1-1.8-1.7-2.6-.2-.2-.6 0-.4.2.6.9 1.1 1.8 1.8 2.6zm19 .3c.2-.5.2-1.2.2-1.8 0-.2-.4-.2-.4 0-.1.6-.3 1.2-.1 1.8.1.1.3.1.3 0zm1.3-.4c.2-.4.2-.8.3-1.2.1-.5.2-.9.3-1.4.1-.3-.3-.4-.4-.1l-.3 1.5c-.1.4-.2.8-.1 1.2-.1.1.1.2.2 0z" fill="#000000" stroke-width="none" opacity="1"></path></g><g id="svga-group-head" transform="matrix(1,0,0,1,0,0)"><g id="svga-group-ears-left-move" transform="matrix(1,0,0,1,0,0)"><g id="svga-group-ears-left"><path id="SvgjsPath3678" d="M60.8 80.5c-.2-.3-3.3-4.3-5.9-6.7s-3.4-2.4-4.6-.9c-1.3 1.5-2.9 9.1-2.5 12.4.4 3.4 3.6 8.7 5.2 11.7 1.7 3 3.3 6.7 5.1 6.3 1.9-.4 4.4-4.6 5.7-7.7 1.2-3.1.6-10.9-3-15.1z" fill="#ffffff" stroke-width="none" opacity="1"></path><path id="SvgjsPath3679" d="M52.9 98.9c-.3-.5-.5-1-.8-1.4l-.6-1c-1.8-3.1-4.4-7.8-4.8-11-.4-3.5 1.2-11.4 2.7-13.2.6-.7 1.2-1.3 2.2-1.4 1.2-.1 2.3.7 3.9 2.2 1.6 1.4 3.5 3.6 5.8 6.5l.2.3c3.9 4.6 4.5 12.8 3.2 16.1-1.1 3-3.9 7.8-6.4 8.3h-.5c-2 .1-3.4-2.6-4.9-5.4zm7.2-17.8s-.1-.1-.2-.3c-2.2-2.8-4.1-5-5.6-6.3-1.2-1.1-2.1-1.7-2.4-1.7-.2 0-.4.2-.8.7-1 1.2-2.6 8.4-2.3 11.7.3 2.8 2.8 7.3 4.5 10.3l.6 1c.3.5.5 1 .8 1.4.9 1.7 2.5 4.6 3.3 4.4 1.2-.2 3.6-3.7 4.9-7.1 1.1-2.8.4-10.2-2.8-14.1z" fill="#000000" stroke-width="none" opacity="1"></path><path id="SvgjsPath3680" d="M50 87c-.3-2.3-.5-7.8.8-9.6 2.2-2.9 6 6.4 6.9 9.3 0 .1.1.2.1.3.2.3-.1.7-.4.6-.4-.2-.9-.6-1.3-.8-1.1-.5-1.6.5-1.3 1.8.4 1.8 1.4 2.9 2.2 4.3.1.2 0 .4-.2.3-1.6-.9-3.5-4.5-3.1-6.6.3-2 1.9-1.8 3.1-.8-.7-1.7-1.5-3.3-2.5-4.8-.6-.9-1.2-2-2.2-2.2-1.2-.2-1 .3-1.2 1.8-.8 4.8-.3 10.4 2.5 14.5.1.1 0 .2-.1.1-1.7-2.3-2.9-4.9-3.3-8.2z" fill="#000000" stroke-width="none" opacity="1"></path></g></g><g id="svga-group-ears-right-move" transform="matrix(1,0,0,1,0,0)"><g id="svga-group-ears-right"><path id="SvgjsPath3681" d="M139.2 80.5c.2-.3 3.3-4.3 5.9-6.7 2.6-2.4 3.4-2.4 4.6-.9s2.9 9.1 2.5 12.4c-.4 3.4-3.6 8.7-5.2 11.7-1.7 3-3.3 6.7-5.1 6.3s-4.4-4.6-5.7-7.7c-1.2-3.1-.6-10.9 3-15.1z" fill="#ffffff" stroke-width="none" opacity="1"></path><path id="SvgjsPath3682" d="M142.1 104.4h-.5c-2.5-.5-5.2-5.4-6.4-8.3-1.3-3.4-.7-11.5 3.2-16.1l.2-.3c2.3-2.9 4.2-5.1 5.8-6.5 1.6-1.4 2.7-2.2 3.9-2.2 1 .1 1.6.7 2.2 1.4 1.5 1.8 3.1 9.7 2.7 13.2-.4 3.2-3 7.9-4.8 11l-.6 1c-.3.5-.5.9-.8 1.4-1.4 2.7-2.8 5.4-4.9 5.4zm-2.2-23.3c-3.2 3.9-3.9 11.2-2.8 14.1 1.3 3.4 3.7 6.9 4.9 7.1.8.2 2.4-2.7 3.3-4.4.3-.5.5-1 .8-1.4l.6-1c1.7-3 4.2-7.5 4.5-10.3.4-3.3-1.3-10.5-2.3-11.7-.4-.4-.6-.7-.8-.7-.3 0-1.2.5-2.4 1.7-1.5 1.4-3.3 3.5-5.6 6.3 0 .2-.1.3-.2.3z" fill="#000000" stroke-width="none" opacity="1"></path><path id="SvgjsPath3683" d="M150 87c.3-2.3.5-7.8-.8-9.6-2.2-2.9-6 6.4-6.9 9.3 0 .1-.1.2-.1.3-.2.3.1.7.4.6.4-.2.9-.6 1.3-.8 1.1-.5 1.6.5 1.3 1.8-.4 1.8-1.4 2.9-2.2 4.3-.1.2 0 .4.2.3 1.6-.9 3.5-4.5 3.1-6.6-.3-2-1.9-1.8-3.1-.8.7-1.7 1.5-3.3 2.5-4.8.6-.9 1.2-2 2.2-2.2 1.2-.2 1 .3 1.2 1.8.8 4.8.3 10.4-2.5 14.5-.1.1 0 .2.1.1 1.7-2.3 2.9-4.9 3.3-8.2z" fill="#000000" stroke-width="none" opacity="1"></path></g></g><g id="svga-group-faceshape-wrap"><g id="svga-group-faceshape-single"><path id="SvgjsPath4113" d="M142.4 53.6c-2.3-11.4-15.1-28.8-42.4-28.8S63.6 38.2 59.6 48.1c-3.5 8.5-3.4 22.4-3.4 22.4s.5 29.9 11.4 48.5c10.6 17.9 32.9 33.4 52.7 12.4 24.5-26.1 23.5-60.8 23.5-60.8s.2-8.9-1.4-17z" fill="#ffffff" stroke-width="none" opacity="1"></path><path id="SvgjsPath4114" d="M99.6 142.7c-.9 0-1.9-.1-2.9-.2-13.2-1.5-24.2-12.8-30.2-22.9C55.6 101 55 71.8 55 70.6c0-.6 0-14.3 3.5-22.9 6.6-16.2 20.1-24 41.5-24 12.3 0 23.2 3.6 31.3 10.4 6.3 5.2 10.9 12.5 12.2 19.3 1.6 7.9 1.4 16.5 1.4 17.2 0 .7.1 9.2-2.6 20.9-2.6 11-8.4 27.1-21.2 40.7-6.6 7-13.8 10.5-21.5 10.5zM100 26c-20.3 0-33.2 7.4-39.4 22.6-3.3 8.2-3.3 21.9-3.3 22 0 .3.6 29.8 11.3 47.9 5.7 9.6 16.2 20.4 28.5 21.8 8 .9 15.6-2.4 22.4-9.7 12.5-13.3 18.1-28.9 20.7-39.6 2.8-11.7 2.6-20.3 2.6-20.4 0-.1.2-8.9-1.4-16.7-1.3-6.4-5.6-13.1-11.5-18-7.8-6.5-18.1-9.9-29.9-9.9z" fill="#000000" stroke-width="none" opacity="1"></path></g></g><g id="svga-group-mouth-single-move" transform="matrix(1,0,0,1,0,0)"><g id="svga-group-mouth-single"><path id="SvgjsPath8270" d="M112.4 120.4c-.5-.3-1.7-.4-2.1-.6-6.8-4.2-15-4-21.6.5-.3.1-2 .1-2.3.2-.6.2 1.4.8 2 .6 2.1-.7 4.1-1.1 6.4-1.1 1.9 0 3.6 1.2 5.5 1.1 1.6-.1 3.1-1.1 4.7-1.3 2.2-.2 3.5-.5 5.4.7.4.4 2.5.3 2-.1zm-6.4-1.5c-.1-.2-.2-.4-.2-.6.2.1.3.1.5.2v.1c.1.1.1.2.1.4-.2-.1-.3-.2-.4-.1zm-5.7-1.6h.7v.1c.2.8.4 1.6.7 2.4-.2 0-.3.1-.4.1-.3-.9-.6-1.8-1-2.6zm1.2 0c.2 0 .3 0 .5.1v.1c.2.7.4 1.3.6 2-.1 0-.3.1-.4.1-.3-.7-.5-1.5-.7-2.3zm1 .2c.2 0 .4.1.5.1.2.6.4 1.1.6 1.7-.2.1-.4.1-.6.2-.1-.8-.3-1.4-.5-2zm1.1.2c.2 0 .3.1.5.1v.1c.1.4.2.8.4 1.2-.1 0-.3.1-.4.1-.1-.6-.3-1.1-.5-1.5zm1.1.2c.2.1.4.1.6.2v.2c.1.2.2.4.2.7-.2 0-.3 0-.5.1-.1-.5-.2-.8-.3-1.2zm2.1.7c.3.1.7.3 1 .4-.3-.1-.6-.1-.9-.1-.1-.1-.1-.2-.1-.3zm-10.8.6c-.2-.5-.4-.9-.7-1.4.1 0 .3-.1.4-.1l.6 1.5H96zm-.9-.1c-.2-.3-.3-.7-.5-1.1.1 0 .2-.1.3-.1l.6 1.2h-.4zm-.8 0c-.2-.3-.3-.5-.5-.8.1 0 .2-.1.3-.1.1.3.3.6.4.9h-.2zm-.9 0-.3-.6c.1 0 .2-.1.3-.1.1.2.2.4.4.7h-.4zm-.9.2c-.1-.1-.2-.3-.2-.4.1-.1.3-.1.4-.2.1.2.2.3.2.5-.2 0-.3 0-.4.1zm-1.1.2c0-.1-.1-.1-.1-.2.2-.1.3-.2.5-.2.1.1.1.2.2.3-.2 0-.4 0-.6.1zm4.9-1.9c.2 0 .3-.1.5-.1.2.7.5 1.4.7 2-.2-.1-.4-.1-.5-.1-.3-.6-.5-1.2-.7-1.8zm.9-.1c.1 0 .3 0 .4-.1.3.8.7 1.6 1 2.4-.2 0-.4-.1-.6-.1-.2-.7-.5-1.5-.8-2.2zm.9-.2h.6v.1l.9 2.7c-.2 0-.3 0-.5-.1-.3-.9-.6-1.8-1-2.7zm-7.2 2.2s0 .1 0 0c-.1.1-.2.2-.3.2.1-.1.2-.1.3-.2zm9.3.5c-.3-.9-.7-1.8-.9-2.7h.6v.1c.4.8.7 1.7 1 2.6h-.7zm8.2 2.6c-5.6 2-11.6 2-17.2-.2-.3-.1-.4.4-.1.5 5.6 2.2 11.8 2.2 17.4.2.3-.1.2-.6-.1-.5z" fill="#000000" stroke-width="none" opacity="1"></path></g></g><g id="svga-group-eyes-left-move" transform="matrix(1,0,0,1,0,0)"><g id="svga-group-eyes-left"><g id="svga-group-eyesback-left"></g><g id="svga-group-eyesiriswrapper-left"><g id="svga-group-eyesiriscontrol-left" transform="matrix(1,0,0,1,0,0)"><g id="svga-group-eyesiris-left"><path id="SvgjsPath6125" d="M79.2 82.9c2.4 0 4.3 1.9 4.3 4.2s-1.9 4.2-4.3 4.2-4.3-1.9-4.3-4.2 1.9-4.2 4.3-4.2z" fill="#000000" stroke-width="none" opacity="1"></path><path id="SvgjsPath6126" d="M75.5 84.9c-.4 1-.5 2.2-.2 3.1.3 1 .9 1.9 1.8 2.3s1.9.6 2.8.3c.9-.2 1.8-.8 2.2-1.6.5-.8.7-1.8.5-2.8-.1-.5-.3-.9-.6-1.3s-.7-.7-1.1-1-.9-.4-1.4-.6c-.5-.1-1-.1-1.5-.1-.1 0-.3 0-.4.1s-.3.1-.4.1c-.2.1-.5.2-.7.3-.3.4-.7.8-1 1.2.2-.5.6-.9 1-1.3.2-.2.5-.3.7-.5.1-.1.3-.1.4-.2.1-.1.3-.1.4-.1.6-.1 1.2-.2 1.8-.1.6.1 1.1.2 1.7.5s1.1.6 1.4 1.1c.4.5.7 1.1.8 1.7.3 1.2.1 2.5-.6 3.6-.3.5-.8 1-1.3 1.4-.5.3-1.1.6-1.7.7-1.2.2-2.5.1-3.5-.6-.5-.3-.9-.8-1.3-1.3-.3-.5-.5-1.1-.6-1.7-.1-1.1.1-2.3.8-3.2z" fill="#ffffff" stroke-width="none" opacity="1"></path><path id="SvgjsPath6127" d="M79.2 92c-.9 0-1.8-.3-2.6-.8-.5-.3-1-.8-1.3-1.3-.3-.5-.5-1.1-.6-1.7-.2-1.2.1-2.4.7-3.4l.6-.9.2-.2v.1c.1-.1.2-.2.3-.2.2-.2.5-.4.8-.5.1-.1.3-.1.4-.2.1-.1.3-.1.4-.1.6-.2 1.2-.2 1.8-.1.6.1 1.2.3 1.7.5.6.3 1.1.7 1.5 1.2.4.5.7 1.1.8 1.7.3 1.2.1 2.6-.6 3.7-.3.6-.8 1.1-1.3 1.4s-1.1.6-1.8.8c-.3-.1-.7 0-1 0zM75 86.5c-.1.5-.1 1.1 0 1.6.1.6.3 1.1.6 1.6s.7.9 1.2 1.2c1 .6 2.2.8 3.4.6.6-.1 1.2-.4 1.6-.7s.9-.8 1.2-1.3c.6-1 .8-2.3.5-3.5-.1-.6-.4-1.2-.8-1.6-.4-.4-.8-.8-1.4-1.1-.5-.2-1-.4-1.6-.5-.5-.1-1.1 0-1.7.1-.1 0-.3.1-.4.1-.1.1-.3.1-.4.2-.2.1-.3.2-.5.3.2-.1.4-.2.6-.2.1 0 .3-.1.4-.1.1 0 .3-.1.4-.1.6-.1 1.1-.1 1.6.1.6.2 1.1.4 1.5.6.4.3.8.6 1.1 1 .3.4.5.9.6 1.4.2 1 0 2-.5 2.9-.5.9-1.4 1.5-2.4 1.7-1 .2-2.1.1-3-.4S75.4 89 75.1 88c-.1-.4-.1-.9-.1-1.5zm.6-1.5c-.4 1-.4 2-.1 3 .3 1 .9 1.8 1.7 2.2.8.4 1.8.6 2.7.3.9-.2 1.7-.8 2.2-1.6.5-.8.7-1.8.5-2.7-.1-.5-.3-.9-.5-1.2-.3-.4-.6-.7-1-.9-.4-.2-.8-.4-1.4-.6-.4-.1-.9-.1-1.5-.1-.1 0-.2 0-.4.1-.1 0-.2.1-.4.1-.2.1-.4.2-.7.3-.4.3-.7.7-1.1 1.1z" fill="#000000" stroke-width="none" opacity="1"></path><path id="SvgjsPath6128" d="M79.3 84.8c-1.3-.3-2.9 1.3-2.6 2.6.1.3.4.6.7.6.4 0 .6-.1.8-.4.1-.1.1-.2.2-.3 0 0 .1-.1.1-.2V87l.1-.1.1-.1s.2-.1.1-.1c.2-.1.4-.1.6-.2.8-.3.7-1.5-.1-1.7z" fill="#ffffff" stroke-width="none" opacity="1"></path></g></g></g><g id="svga-group-eyesfront-left"><path id="SvgjsPath5886" d="M79 72.1c-8.2 0-14.8 6.6-14.8 14.8s6.6 14.8 14.8 14.8 14.8-6.6 14.8-14.8c0-8.1-6.6-14.8-14.8-14.8zM86.6 91c-1 .7-4.1 2.3-8.1 2.2s-11-2.6-11.7-3.5c-.7-1 2-3.2 3.2-4 1.1-.8 4.2-3.3 7.8-3.4 3.6-.1 6.2.8 8.4 2.2 2.2 1.3 3.7 3.7 3.7 3.7s-2.4 2.2-3.3 2.8z" fill="#ffffff" stroke-width="none" opacity="1"></path><path id="SvgjsPath5887" d="M79.4 93.7h.3c5.7-.1 9.7-4.3 9.8-4.5.2-.2.2-.5 0-.7s-.5-.2-.7 0c0 0-3.9 4.1-9.2 4.2-5.3.1-11.5-2.6-12.5-3.4.2-1 4.8-5.5 8.2-6.2 3.4-.7 10.8-.5 14.4 5.8.1.2.4.3.7.2.2-.1.3-.4.2-.7-3.9-6.7-11.8-7-15.4-6.2-3.4.7-8.4 5.1-8.9 6.8-.1.5 0 .8.2.9 1 1 7.4 3.8 12.9 3.8z" fill="#000000" stroke-width="none" opacity="1"></path></g></g></g><g id="svga-group-eyes-right-move" transform="matrix(1,0,0,1,0,0)"><g id="svga-group-eyes-right"><g id="svga-group-eyesback-right"></g><g id="svga-group-eyesiriswrapper-right"><g id="svga-group-eyesiriscontrol-right" transform="matrix(1,0,0,1,0,0)"><g id="svga-group-eyesiris-right"><path id="SvgjsPath6129" d="M121.3 82.9c2.4 0 4.3 1.9 4.3 4.2s-1.9 4.2-4.3 4.2-4.3-1.9-4.3-4.2 2-4.2 4.3-4.2z" fill="#000000" stroke-width="none" opacity="1"></path><path id="SvgjsPath6130" d="M117.6 84.9c-.4 1-.5 2.2-.2 3.1.3 1 .9 1.9 1.8 2.3s1.9.6 2.8.3c.9-.2 1.8-.8 2.2-1.6.5-.8.7-1.8.5-2.8-.1-.5-.3-.9-.6-1.3s-.7-.7-1.1-1-.9-.4-1.4-.6c-.5-.1-1-.1-1.5-.1-.1 0-.3 0-.4.1s-.3.1-.4.1c-.2.1-.5.2-.7.3-.3.4-.7.8-1 1.2.2-.5.6-.9 1-1.3.2-.2.5-.3.7-.5.1-.1.3-.1.4-.2.1-.1.3-.1.4-.1.6-.1 1.2-.2 1.8-.1.6.1 1.1.2 1.7.5s1.1.6 1.4 1.1c.4.5.7 1.1.8 1.7.3 1.2.1 2.5-.6 3.6-.3.5-.8 1-1.3 1.4-.5.3-1.1.6-1.7.7-1.2.2-2.5.1-3.5-.6-.5-.3-.9-.8-1.3-1.3-.3-.5-.5-1.1-.6-1.7 0-1.1.2-2.3.8-3.2z" fill="#ffffff" stroke-width="none" opacity="1"></path><path id="SvgjsPath6131" d="M121.3 92c-.9 0-1.8-.3-2.6-.8-.5-.3-1-.8-1.3-1.3-.3-.5-.5-1.1-.6-1.7-.2-1.2.1-2.4.7-3.4l.6-.9.2-.2v.1c.1-.1.2-.2.3-.2.2-.2.5-.4.8-.5.1-.1.3-.1.4-.2.1-.1.3-.1.4-.1.6-.2 1.2-.2 1.8-.1.6.1 1.2.3 1.7.5.6.3 1.1.7 1.5 1.2.4.5.7 1.1.8 1.7.3 1.2.1 2.6-.6 3.7-.3.6-.8 1.1-1.3 1.4s-1.1.6-1.8.8c-.3-.1-.6 0-1 0zm-4.2-5.5c-.1.5-.1 1.1 0 1.6.1.6.3 1.1.6 1.6s.7.9 1.2 1.2c1 .6 2.2.8 3.4.6.6-.1 1.2-.4 1.6-.7s.9-.8 1.2-1.3c.6-1 .8-2.3.5-3.5-.1-.6-.4-1.2-.8-1.6-.4-.4-.8-.8-1.4-1.1-.5-.2-1-.4-1.6-.5-.5-.1-1.1 0-1.7.1-.1 0-.3.1-.4.1-.1.1-.3.1-.4.2-.2.1-.3.2-.5.3.2-.1.4-.2.6-.2.1 0 .3-.1.4-.1.1 0 .3-.1.4-.1.6-.1 1.1-.1 1.6.1.6.2 1.1.4 1.5.6.4.3.8.6 1.1 1 .3.4.5.9.6 1.4.2 1 0 2-.5 2.9-.5.8-1.3 1.5-2.3 1.7-1 .2-2.1.1-3-.4s-1.6-1.4-1.9-2.4c-.1-.4-.2-.9-.2-1.5zm.6-1.5c-.4 1-.4 2-.1 3 .3 1 .9 1.8 1.7 2.2.8.4 1.8.6 2.7.3.9-.2 1.7-.8 2.2-1.6.5-.8.7-1.8.5-2.7-.1-.5-.3-.9-.5-1.2-.3-.4-.6-.7-1-.9-.4-.2-.8-.4-1.4-.6-.4-.1-.9-.1-1.5-.1-.1 0-.2 0-.4.1-.1 0-.2.1-.4.1-.2.1-.4.2-.7.3l-1.1 1.1z" fill="#000000" stroke-width="none" opacity="1"></path><path id="SvgjsPath6132" d="M121.4 84.8c-1.3-.3-2.9 1.3-2.6 2.6.1.3.4.6.7.6.4 0 .6-.1.8-.4.1-.1.1-.2.2-.3 0 0 .1-.1.1-.2V87l.1-.1.1-.1s.2-.1.1-.1c.2-.1.4-.1.6-.2.8-.3.7-1.5-.1-1.7z" fill="#ffffff" stroke-width="none" opacity="1"></path></g></g></g><g id="svga-group-eyesfront-right"><path id="SvgjsPath5888" d="M121 72.1c-8.2 0-14.8 6.6-14.8 14.8s6.6 14.8 14.8 14.8 14.8-6.6 14.8-14.8c0-8.1-6.6-14.8-14.8-14.8zm-.1 21.1c-3.9.1-7.1-1.5-8.1-2.2s-3.4-2.8-3.4-2.8 1.5-2.4 3.7-3.7c2.2-1.3 4.9-2.2 8.4-2.2 3.6.1 6.6 2.6 7.8 3.4 1.1.8 3.9 3.1 3.2 4-.7 1-7.7 3.4-11.6 3.5z" fill="#ffffff" stroke-width="none" opacity="1"></path><path id="SvgjsPath5891" d="M120 93.7h-.3c-5.7-.1-9.7-4.3-9.8-4.5-.2-.2-.2-.5 0-.7s.5-.2.7 0c0 0 3.9 4.1 9.2 4.2 5.3.1 11.5-2.6 12.5-3.4-.2-1-4.8-5.5-8.2-6.2-3.4-.7-10.8-.5-14.4 5.8-.1.2-.4.3-.7.2-.2-.1-.3-.4-.2-.7 3.9-6.7 11.8-7 15.4-6.2 3.4.7 8.4 5.1 8.9 6.8.1.5 0 .8-.2.9-1 1-7.4 3.8-12.9 3.8z" fill="#000000" stroke-width="none" opacity="1"></path></g></g></g><g id="svga-group-facehighlight-single"></g><g id="svga-group-eyebrows-left-move" transform="matrix(1,0,0,1,0,3)"><g id="svga-group-eyebrows-left-rotate" transform="matrix(0.9825664732332882,-0.18591160716291477,0.18591160716291477,0.9825664732332882,-12.340856140843243,15.663083613090741)"><g id="svga-group-eyebrows-left"><path id="SvgjsPath6416" d="M63.38 74.47c.22-.18 5.53-4.4 8.18-4.68 2.64-.28 18.4 3.81 19.44 5.45.47.75.57 1.33.28 1.75-.23.33-.68.5-1.35.5-.44 0-.98-.07-1.61-.21-1.05-.23-3.78-1.19-6.94-2.29-4.07-1.43-8.69-3.04-9.81-3.12-1.58-.1-6.16 2.28-7.79 3.21-.16.09-.37.04-.48-.11a.408.408 0 0 1 .08-.5z" fill="#000000" stroke-width="none" opacity="1"></path></g></g></g><g id="svga-group-eyebrows-right-move" transform="matrix(1,0,0,1,0,3)"><g id="svga-group-eyebrows-right-rotate" transform="matrix(0.9825664725843342,0.1859116105927184,-0.1859116105927184,0.9825664725843342,15.827553841414073,-21.519153089420442)"><g id="svga-group-eyebrows-right"><path id="SvgjsPath6417" d="M136.62 74.47c-.22-.18-5.53-4.4-8.18-4.68-2.64-.28-18.4 3.81-19.44 5.45-.47.75-.57 1.33-.28 1.75.23.33.68.5 1.35.5.44 0 .98-.07 1.61-.21 1.05-.23 3.78-1.19 6.94-2.29 4.07-1.43 8.69-3.04 9.81-3.12 1.58-.1 6.16 2.28 7.79 3.21.16.09.37.04.48-.11.09-.17.06-.38-.08-.5z" fill="#000000" stroke-width="none" opacity="1"></path></g></g></g><g id="svga-group-beardwrap"><g id="svga-group-beard-single-move" transform="matrix(1,0,0,1,0,0)"><g id="svga-group-beard-single"></g></g></g><g id="svga-group-mustache-single-move" transform="matrix(1,0,0,1,0,0)"><g id="svga-group-mustache-single"></g></g><g id="svga-group-nose-single-move" transform="matrix(1,0,0,1,1,0)"><g id="svga-group-nose-single" transform="matrix(0.7499991000000003,0,0,0.7499991000000003,24.705368289286397,26.061056496467558)"><path id="SvgjsPath4657" d="M103.29 107.27c-1.43 1.14-6.6.84-8.09-1.16-1.49-2.01-1.23-5.37-.71-8.74.52-3.36 3.24-17.34 3.75-18.38.52-1.04 1.75-1.16 2.39 0s3.43 16.63 3.75 20.45.86 6.28-1.09 7.83z" fill="#ffffff" stroke-width="none" opacity="1"></path><path id="SvgjsPath4658" d="M95.15 107.24c2.35 1.15 5.1 2.37 7.68 1.14 2.66-1.27 2.67-4.06 2.36-6.63-.96-7.77-2.31-15.48-3.95-23.13-.2-.94-1.65-.54-1.44.4 1.2 5.6 2.24 11.23 3.09 16.89.41 2.72 1.34 5.93.94 8.68-.62 4.25-5.38 2.6-7.91 1.36-.88-.42-1.64.87-.77 1.29z" fill="#000000" stroke-width="none" opacity="1"></path></g></g><g id="svga-group-hair-front"><path id="SvgjsPath7875" d="M126.1 44.8s-4.2 10.9-22.1 17.7c0 0-1.2-.2 2.3-4 3.5-3.7-9.5 5.6-13.2 6.3-3.7.7 7.4-9.3 7.4-9.3S82.8 67.3 81 66.4c-1.9-.9 7.4-8.4 7.4-8.4S74 68.2 71.9 68.7 80 57.5 80 57.5s-11.2 7.9-13.9 15.8c-2.8 7.9-4.4 7-4.4 3.5s1.9-10 1.9-10-4.2 5.1-3.5 15.6.9 16.3-.7 13.7c-1.6-2.6-4-17.4-4-17.4s1.2 11.9-.7 10.9c-1.9-.9-6-18.6-6-24.4s1.4-15.3 4-19.8c0 0-3.3 6.5-5.6 9.3s2.6-12.3 6.7-17.2 12.6-10.2 12.6-10.2-11.2 5.3-8.8 2.6c2.3-2.8 20.9-18.1 50.4-10.7 0 0-6-3.5-9.3-5.6s10.7.2 14.9 2.8c4.2 2.6 8.1 8.4 8.1 8.4s13.9.7 19.5 3.5-7 .2-11.4.9c0 0 11.2 5.6 15.8 9.5s7.7 10.9 5.6 10.2-6.3-5.8-6.3-5.8 4 7.9 5.6 16.5 2.3 15.8.9 19.8-3.5-12.8-3.5-12.8.5 11.4-1.9 19.5c-2.3 8.1-5.3 11.9-5.8 8.6s2.1-9.5 2.1-14.9S140 68 140 68s.7 8.8-1.2 6.3c-1.9-2.6-4-8.4-6.3-13-2.2-4.7-5.7-4.9-6.4-16.5z" fill="#ffffff" stroke-width="none" opacity="1"></path><path id="SvgjsPath7876" d="M151.5 59.4c-.8-4.3-2.2-8.4-3.4-11.4 1 .9 2 1.6 2.8 1.9.9.3 1.5-.1 1.8-.6 1.1-2-2.8-8.3-6.4-11.3-3.1-2.6-8.8-5.9-12.5-7.8 1.1.1 2.4.2 3.5.2 4.5.4 6 .5 6.3-.8.3-1.1-1-1.8-1.9-2.2-5.2-2.6-16.9-3.4-19.4-3.6-1-1.4-4.4-6-8.2-8.3-2.7-1.6-15.4-5.1-16.7-3.1-.2.2-.6 1.1.8 2 1.1.7 2.6 1.7 4.1 2.5C73.2 12.2 57 29 56.8 29.2c-.8.9-.6 1.6-.3 2 .3.3.6.7 2.5.3-2.1 1.7-4.3 3.6-5.9 5.4-3.4 4-8.2 16.4-7.5 18.4.1.4.5.7.9.8.7.1 1.2-.5 1.4-.7.3-.4.6-.8 1-1.3-.8 4-1.1 8.2-1.1 11.1 0 5.1 4 24 6.6 25.3.5.2 1 .2 1.4-.1.3-.2.5-.5.7-1.1.7 3.2 1.5 6.2 2.2 7.3.5.7.9 1.1 1.5 1.1.1 0 .3 0 .4-.1 1.3-.4 1.6-1.9.7-15.3-.3-1.1-.3-2.2-.3-3.2.3.8.7 1.2 1.4 1.3 1.1.2 2.5-.5 4.7-6.7.8-2.3 2.5-4.7 4.3-6.9-1 1.6-.8 2-.6 2.3.2.3.7.7 1.3.5 1-.2 4.4-2.3 7.9-4.7-.2.4-.3.8-.3 1.1.1.5.3.9.8 1.1 1.2.6 5.3-1.3 12.4-5.7-2 2.4-1.7 3.1-1.5 3.5.2.3.6.9 1.8.7 2-.4 5.9-2.7 9.4-4.8.2-.1.5-.3.7-.4-.6 1-.6 1.6-.5 2 .2.5.6.8.9.9h.5c12.5-4.7 18.5-11.4 21-15.3.8 6.1 2.5 8.4 4.3 10.5.7 1 1.4 1.8 2.1 3.1.9 1.8 1.7 3.7 2.5 5.6 1.3 3.1 2.6 5.9 3.8 7.6.7 1 1.5.9 1.8.8.2-.1.6-.2.9-1 .3 1.7.6 3.5.6 5.2 0 2.6-.6 5.5-1.2 8-.6 2.8-1.1 5.2-.9 7 .2 1.7 1.1 2 1.6 2 2.9.2 5.4-8 6.1-10.5.8-3 1.3-6.3 1.6-9.4.9 3.9 1.7 4 2.2 4 .4 0 1.1-.1 1.5-1.3 1.6-3.6 1.3-10-.6-20.2zm-.6 18.2c-.6-2.4-1.4-7-1.9-11.1-.1-.5-.5-.9-1.1-.9-.5 0-.9.5-.9 1 0 .1.4 11.3-1.8 19.2-1.4 5-3 7.9-3.9 8.8-.2-1.4.3-3.8.9-6.3.6-2.6 1.2-5.6 1.2-8.4 0-5.5-2.3-11.9-2.4-12.2-.1-.4-.5-.7-.9-.7h-.2c-.5.1-.8.6-.8 1.1.1 1.6.2 3.5.1 4.7-.9-1.6-2-3.9-3-6.4-.8-1.9-1.7-3.8-2.6-5.6-.7-1.4-1.5-2.4-2.3-3.4-1.9-2.4-3.7-4.7-4.1-12.7 0-.5-.4-.9-.8-.9-.5-.1-.9.2-1.1.6 0 .1-3.9 9.7-19.4 16.3.3-.4.7-.9 1.3-1.5.5-.5 1.3-1.4.6-2.2-.7-.9-1.4-.5-6 2.2-2.5 1.5-5.7 3.4-7.7 4.2 1.4-1.7 4.4-4.7 7.2-7.2.4-.4.4-.9.1-1.4-.3-.4-.9-.5-1.3-.2-7 4.7-14.8 9.4-17.7 10.6 1.1-1.5 4.1-4.2 6.8-6.4.4-.3.5-1 .2-1.4s-.9-.5-1.4-.2c-5.1 3.6-10.8 7.5-13.9 9.3 1.6-2.1 4.3-5.5 6.9-8.3.3-.4.3-1 0-1.3-.3-.4-.9-.4-1.3-.1-.7.3-11.7 8.1-14.5 16.2-1.1 3.2-1.9 4.6-2.4 5.1-.1-.3-.1-.7-.1-1.3 0-3.3 1.8-9.7 1.8-9.7.1-.5-.1-.9-.5-1.2-.4-.2-.9-.1-1.2.3-.2.2-4.4 5.5-3.7 16.3.2 3.3.6 8.7.5 11.6-1.1-3.3-2.4-10.7-3.2-15.5-.1-.5-.6-.9-1.1-.8s-.9.6-.9 1.1c.3 3.3.5 7.2.3 9.1-1.7-3.8-5-17.4-5-22.6 0-5.6 1.2-13.7 3.3-18.2.3-.6.5-1.1.6-1.1.2-.5.1-1.1-.4-1.3-.5-.3-1.1-.1-1.3.4l-.6 1.2c-.6 1.2-1.7 3.3-2.9 5.1 1.3-4 3.9-10.3 6.3-13 4-4.7 12.2-10 12.3-10 .4-.3.6-.9.3-1.3-.3-.5-.8-.6-1.3-.4-2.1 1-4.5 2-6.2 2.7 5.6-4.9 23.1-15.2 48-8.9.5.1 1-.1 1.2-.6s0-1-.4-1.2c-.1 0-4.2-2.4-7.4-4.4 3.4.4 9.5 1.8 12 3.3 3.9 2.4 7.8 8 7.8 8.1.2.3.5.4.8.4.1 0 11.5.6 17.6 2.7-.6 0-1.2-.1-1.8-.1-2.8-.2-5.9-.5-7.8-.2-.4.1-.8.4-.8.8s.2.9.5 1c.1.1 11.1 5.6 15.6 9.4 3.1 2.6 5.1 6.3 5.7 8.1-1.5-1-3.7-3.5-5-5-.3-.4-.9-.5-1.3-.2s-.6.8-.4 1.3c0 .1 3.9 7.9 5.5 16.2 1.5 8 1.9 13.8 1.3 17.4zm-30.7-37.4c-3.5 4.5-7.9 8-13.1 10.4-.7.3-.1 1.4.6 1.1 5.3-2.4 9.8-6 13.4-10.6.5-.7-.4-1.6-.9-.9zm-5.8-2.3c-4.5 4.5-9.7 7.9-15.5 10.3-.7.3-.4 1.5.3 1.2 6.1-2.5 11.4-6 16.1-10.6.5-.6-.3-1.5-.9-.9zm-14.6 3.2c-6.2 4.2-12.7 8-19.4 11.3-.7.4-.1 1.4.6 1.1 6.8-3.3 13.2-7 19.4-11.3.7-.5.1-1.6-.6-1.1zm-20.6 7.6c-6.1 4-11.3 9-15.5 15-.5.7.6 1.3 1.1.6 4-5.8 9.1-10.7 15-14.5.7-.5.1-1.6-.6-1.1zM64 55.2c-2.5 4-4.6 8.1-6.4 12.5-.3.7.9 1.1 1.2.3 1.7-4.3 3.8-8.3 6.2-12.2.5-.7-.6-1.3-1-.6zm-9.1 7c-1 4.5-1.3 9.1-.9 13.7.1.8 1.3.8 1.3 0-.4-4.5-.1-9 .9-13.4.1-.7-1.1-1-1.3-.3zm50.6-24.7c-.7.4-.1 1.5.6 1.1 3.6-2.1 6.6-5 8.8-8.4.4-.7-.6-1.3-1.1-.6-2.1 3.2-4.9 5.8-8.3 7.9zM86 44.4c6.1-2.8 11.4-6.6 16-11.5.6-.6-.3-1.5-.9-.9-4.5 4.8-9.8 8.6-15.8 11.3-.6.3 0 1.4.7 1.1zm-5.6-6.3c-5.1 3.2-9.9 6.7-14.5 10.7-.6.5.3 1.4.9.9 4.5-3.9 9.2-7.3 14.2-10.5.7-.4.1-1.5-.6-1.1zm-11.2-3c.7-.4.1-1.5-.6-1.1-6.7 4.2-11.4 10.4-13.7 18-.2.8 1 1.1 1.2.3 2.1-7.2 6.7-13.2 13.1-17.2zm3.6-6.5c4-2.6 8.4-4.4 13.1-5.4.8-.2.5-1.4-.3-1.2-4.8 1-9.3 2.9-13.4 5.5-.7.4-.1 1.5.6 1.1zm10.7 2.6c3-1.7 6.3-2.8 9.7-3.3.8-.1.5-1.3-.3-1.2-3.6.5-6.9 1.7-10 3.5-.7.3-.1 1.4.6 1zm16.9-6.7c3.7.1 7.2.8 10.6 2 .8.3 1.1-.9.3-1.2-3.6-1.3-7.2-1.9-11-2.1-.7 0-.7 1.3.1 1.3zm24.8 7.6c-.5 2.8-1.3 5.5-2.4 8.1-.3.7.9 1.1 1.2.3 1.1-2.6 1.9-5.3 2.4-8.1.1-.8-1.1-1.1-1.2-.3zm4.3 4.6c.1-.8-1.2-.8-1.3 0-.3 3.7.1 7.2 1.1 10.8.2.8 1.4.4 1.2-.3-1-3.5-1.3-7-1-10.5zm4.4 17.2c-.3-.7-1.5-.4-1.2.3 1 2.5 2.4 4.9 4.1 7 .5.6 1.4-.3.9-.9-1.6-1.9-2.9-4-3.8-6.4zm2.1-4.6c-1.9-2.6-3-5.5-3.5-8.7-.1-.8-1.3-.5-1.2.3.5 3.3 1.7 6.3 3.6 9 .5.7 1.6.1 1.1-.6zm3.5 5.1c-.4-.7-1.5-.1-1.1.6 1.6 2.5 2.9 5 4.1 7.7.3.7 1.4.1 1.1-.6-1.2-2.7-2.6-5.3-4.1-7.7zm4.4 13.6c.1 2.1.3 4.1.4 6.2 0 .8 1.3.8 1.3 0-.1-2.1-.3-4.1-.4-6.2-.1-.8-1.3-.8-1.3 0zm-2.1-21.4c-1-1.7-1.9-3.5-2.9-5.2-.4-.7-1.5-.1-1.1.6 1 1.7 1.9 3.5 2.9 5.2.4.7 1.5.1 1.1-.6zm2.4 9.7c1.1 2.4 1.8 4.8 2.3 7.4.1.8 1.3.5 1.2-.3-.4-2.7-1.2-5.2-2.4-7.7-.4-.7-1.5-.1-1.1.6z" fill="#000000" stroke-width="none" opacity="1"></path></g><g id="svga-group-glasses-single-move" transform="matrix(1,0,0,1,0,0)"><g id="svga-group-glasses-single"></g></g></g></g></g><rect id="svga-credit-rect" width="200" height="15" x="0" y="185" fill="#ecf0f1" opacity="0.5" style="display: none;"></rect><text id="svga-credit-text" font-family="Avenir Next, Roboto, Helvetica, Arial, sans-serif" font-size="10px" text-anchor="start" font-weight="400" size="10px" anchor="start" weight="400" fill="#333333" x="33.43669891357422" y="182.60824704170227" style="display: none;"><tspan id="SvgjsTspan3640" dy="13" x="33.43669891357422">Created on AvatarMaker.com</tspan></text></g><defs id="SvgjsDefs3587"></defs></svg>