<svg width="349" height="315" viewBox="0 0 349 315" fill="none" xmlns="http://www.w3.org/2000/svg">
<path d="M251.482 70.4296C219.359 0.123505 113.682 10.1295 106.482 10.9295C97.4819 11.9295 -40.5181 5.42957 29.9819 188.93C100.482 372.43 112.982 276.93 177.982 295.93C242.982 314.93 326.357 262.662 333.982 242.43C343 218.5 340.482 201.93 288.982 141.93C265.585 114.67 264.047 97.9296 251.482 70.4296Z" fill="#7BB297"/>
<path d="M106.934 5.85645C113.363 5.22708 140.552 3.17585 170.604 9.10938C202.558 15.4183 238.976 31.0286 256.029 68.3516L256.632 69.6787C269.089 97.3378 270.346 112.541 292.776 138.673L295.154 141.454C319.382 169.885 332.725 188.835 338.81 203.825C342.004 211.695 343.252 218.592 342.993 225.263C342.752 231.47 341.214 237.215 339.093 243.029L338.661 244.192C337.363 247.636 334.7 251.239 331.395 254.746C328.014 258.333 323.65 262.146 318.536 265.992C308.304 273.687 294.801 281.712 279.519 288.465C249.11 301.901 210.707 310.704 176.579 300.729C161.624 296.357 149.725 298.517 138.782 301.79C136.009 302.62 133.327 303.512 130.615 304.403C127.934 305.285 125.22 306.168 122.527 306.923C117.15 308.43 111.537 309.524 105.688 309.104C93.5401 308.234 82.1511 301.026 69.623 283.273C57.148 265.596 42.9696 236.676 25.3145 190.723C7.52207 144.412 2.66245 109.542 5.96582 83.2207C9.29096 56.7267 20.8671 39.1241 35.2969 27.5869C63.569 4.98242 102.468 6.34453 105.93 5.95996L106.934 5.85645Z" stroke="#7BB297" stroke-opacity="0.5" stroke-width="10"/>
</svg>
